<?xml version="1.0" standalone="no"?>
<!DOCTYPE svg PUBLIC "-//W3C//DTD SVG 20010904//EN"
 "http://www.w3.org/TR/2001/REC-SVG-20010904/DTD/svg10.dtd">
<svg version="1.0" xmlns="http://www.w3.org/2000/svg"
 width="500.000000pt" height="500.000000pt" viewBox="0 0 500.000000 500.000000"
 preserveAspectRatio="xMidYMid meet">
<metadata>
Created by potrace 1.14, written by Peter Selinger 2001-2017
</metadata>
<g transform="translate(0.000000,500.000000) scale(0.100000,-0.100000)"
fill="#000000" stroke="none">
<path d="M900 2851 c-58 -16 -115 -45 -160 -83 -33 -27 -50 -64 -50 -105 0
-53 9 -59 164 -119 128 -50 156 -70 156 -110 0 -72 -79 -127 -208 -145 -199
-28 -384 69 -300 158 19 20 19 23 4 23 -9 0 -28 -7 -41 -16 -57 -37 -14 -117
83 -155 83 -33 272 -33 354 0 72 28 113 66 129 120 21 70 4 88 -126 139 -181
71 -183 73 -193 101 -13 36 -1 62 46 102 95 80 279 113 336 60 41 -39 36 -85
-14 -133 -27 -25 -50 -38 -68 -38 -33 0 -54 13 -50 30 2 7 -3 15 -9 17 -8 3
-13 -5 -13 -20 0 -14 7 -28 16 -31 67 -26 170 28 195 101 33 101 -83 150 -251
104z"/>
<path d="M2922 2859 c-50 -10 -139 -49 -184 -80 -17 -12 -39 -42 -50 -66 -36
-81 -4 -114 170 -177 127 -45 142 -57 142 -111 0 -31 -43 -81 -91 -105 -83
-43 -268 -46 -362 -6 -70 29 -100 107 -54 139 21 15 21 16 2 16 -34 1 -65 -27
-65 -59 0 -42 43 -86 108 -111 48 -19 75 -23 177 -22 129 0 178 12 247 59 36
25 68 84 68 125 0 36 -43 64 -165 108 -66 24 -131 54 -144 66 -53 51 -16 112
108 173 67 33 83 37 152 37 68 0 80 -3 103 -24 38 -36 35 -84 -7 -126 -52 -52
-125 -58 -121 -11 1 9 -5 16 -13 16 -10 0 -13 -9 -11 -27 3 -25 8 -28 45 -31
104 -8 205 103 158 174 -32 49 -108 64 -213 43z"/>
<path d="M1535 2775 c-27 -13 -72 -45 -100 -71 -28 -27 -35 -36 -15 -21 121
94 180 119 193 83 9 -24 -10 -74 -48 -125 -60 -83 -292 -280 -314 -267 -21 14
39 156 98 230 39 49 41 62 1 16 -78 -93 -140 -210 -140 -268 0 -25 -60 -53
-84 -40 -20 11 -14 37 16 81 25 35 5 35 -28 0 -27 -29 -39 -65 -31 -88 10 -25
58 -30 97 -9 34 18 36 18 70 2 43 -22 76 -23 136 -2 42 14 47 14 63 0 35 -32
106 -13 191 50 34 25 64 44 66 41 2 -2 -9 -21 -26 -43 -52 -69 -37 -72 66 -9
l74 45 0 -39 c0 -39 11 -51 48 -51 19 0 106 41 139 66 23 16 23 16 17 -15 -12
-59 28 -76 101 -42 47 22 169 110 162 117 -3 3 -26 -11 -53 -31 -64 -49 -117
-75 -154 -75 -25 0 -30 4 -30 23 0 30 46 95 123 175 l61 62 108 0 c65 0 108 4
108 10 0 6 -39 10 -97 10 l-97 0 34 29 c19 16 32 33 27 37 -4 4 -24 -9 -45
-29 l-38 -37 -152 0 c-193 0 -206 -18 -17 -22 l136 -3 -98 -100 c-104 -107
-192 -163 -232 -150 -27 8 -27 44 -1 73 42 45 13 43 -75 -4 -70 -37 -89 -40
-55 -9 11 10 20 24 20 32 0 26 -42 12 -111 -37 -85 -59 -129 -76 -159 -60 -29
15 -26 23 26 59 33 24 44 39 42 54 -2 12 -10 23 -19 25 -23 4 -79 -46 -96 -86
-23 -56 -125 -83 -173 -44 -21 17 -21 17 78 95 170 133 302 285 302 350 0 17
-28 37 -52 37 -7 0 -35 -11 -63 -25z m-5 -359 c0 -15 -48 -51 -57 -42 -5 5 41
56 52 56 3 0 5 -6 5 -14z"/>
<path d="M4373 2625 l-41 -35 -146 0 c-91 0 -146 -4 -146 -10 0 -6 52 -10 136
-10 l136 0 -76 -82 c-81 -87 -176 -157 -240 -178 -34 -11 -40 -10 -57 6 -18
19 -18 20 29 54 48 36 62 72 31 78 -21 4 -75 -42 -95 -79 -14 -29 -60 -59 -88
-59 -12 0 -10 8 9 36 28 41 30 55 13 72 -20 20 -47 13 -101 -27 -106 -79 -177
-99 -177 -48 0 11 10 31 22 44 45 48 -6 43 -94 -11 -44 -26 -55 -30 -48 -16 6
10 15 22 20 25 6 3 10 13 10 21 0 27 -44 14 -115 -35 -80 -56 -118 -69 -140
-51 -22 18 -18 40 12 72 14 15 23 31 19 35 -4 4 -26 -13 -49 -39 -43 -48 -100
-83 -117 -73 -20 12 -9 39 32 77 55 51 36 49 -25 -3 -38 -33 -47 -47 -45 -68
4 -34 34 -38 86 -12 39 20 40 20 45 1 3 -11 12 -23 21 -26 25 -10 99 22 166
72 33 24 60 41 60 38 0 -3 -13 -25 -30 -49 -16 -24 -30 -46 -30 -49 0 -14 27
-3 96 39 l74 45 0 -33 c0 -56 29 -69 101 -43 32 11 39 10 59 -6 27 -22 66 -23
141 -2 54 15 59 15 74 0 29 -29 96 -15 170 34 22 15 45 29 50 32 6 4 10 -8 10
-29 0 -47 19 -58 72 -44 41 11 199 119 189 129 -4 3 -24 -9 -45 -26 -56 -45
-129 -82 -162 -82 -61 0 -27 74 89 194 l64 66 109 0 c66 0 109 4 109 10 0 6
-39 10 -97 10 l-98 1 33 28 c17 15 32 31 32 34 0 15 -18 6 -57 -28z m-383
-203 c0 -14 -49 -56 -57 -49 -3 4 4 18 17 32 24 25 40 32 40 17z m-177 -26 c8
-19 -28 -73 -53 -81 -23 -7 -70 1 -70 13 1 8 100 82 111 82 4 0 9 -6 12 -14z"/>
<path d="M1164 2479 c-9 -15 12 -33 30 -26 9 4 16 13 16 22 0 17 -35 21 -46 4z"/>
<path d="M2550 2013 c0 -54 -4 -104 -9 -111 -5 -8 -24 -18 -42 -22 -28 -7 -29
-8 -9 -9 14 0 32 3 40 9 9 5 19 5 27 -2 10 -8 13 12 13 105 0 66 -4 118 -10
122 -6 4 -10 -29 -10 -92z"/>
<path d="M2597 2103 c-11 -11 -8 -233 3 -233 6 0 10 47 10 120 0 66 -1 120 -3
120 -2 0 -7 -3 -10 -7z"/>
<path d="M1988 2093 c6 -2 18 -2 25 0 6 3 1 5 -13 5 -14 0 -19 -2 -12 -5z"/>
<path d="M2945 2088 c-37 -20 -55 -51 -55 -98 0 -48 30 -110 52 -110 9 0 10 3
2 8 -22 14 -34 51 -34 102 0 45 4 56 31 81 34 32 34 34 4 17z"/>
<path d="M2998 2093 c7 -3 16 -2 19 1 4 3 -2 6 -13 5 -11 0 -14 -3 -6 -6z"/>
<path d="M1915 2064 c-19 -21 -25 -38 -25 -73 0 -48 30 -111 52 -111 9 0 10 3
2 8 -39 26 -47 133 -13 176 27 34 15 34 -16 0z"/>
<path d="M2045 2074 c9 -9 19 -13 23 -10 3 4 0 11 -8 16 -24 15 -33 11 -15 -6z"/>
<path d="M3042 2078 c5 -15 28 -23 28 -10 0 5 -7 13 -16 16 -10 4 -14 1 -12
-6z"/>
<path d="M2129 2021 c-13 -11 -22 -22 -19 -24 3 -3 16 5 29 19 28 29 22 31
-10 5z"/>
<path d="M2260 1955 c0 -50 4 -85 10 -85 6 0 10 35 10 85 0 50 -4 85 -10 85
-6 0 -10 -35 -10 -85z"/>
<path d="M2360 2030 c11 -7 15 -28 15 -85 0 -43 4 -75 10 -75 13 0 7 141 -7
158 -6 6 -16 12 -22 12 -6 0 -4 -5 4 -10z"/>
<path d="M2440 2020 c-31 -31 -30 -93 1 -125 20 -20 20 -20 4 19 -19 44 -14
77 15 106 11 11 16 20 10 20 -5 0 -19 -9 -30 -20z"/>
<path d="M2703 2033 c9 -2 23 -2 30 0 6 3 -1 5 -18 5 -16 0 -22 -2 -12 -5z"/>
<path d="M3134 2028 c-22 -10 -44 -47 -44 -73 0 -44 43 -85 91 -85 32 0 69 44
69 82 0 34 -23 78 -41 78 -6 0 -3 -10 5 -22 34 -48 9 -128 -40 -128 -34 0 -64
34 -64 73 0 42 17 65 55 76 19 6 23 9 10 9 -11 1 -30 -4 -41 -10z"/>
<path d="M3278 2034 c-5 -4 -8 -43 -8 -88 0 -56 3 -77 10 -70 6 6 10 44 8 88
-2 43 -6 74 -10 70z"/>
<path d="M3337 2033 c18 -4 22 -13 28 -68 4 -36 5 -71 1 -80 -3 -8 0 -15 7
-15 16 0 13 135 -3 155 -7 8 -22 14 -34 14 -21 -2 -21 -2 1 -6z"/>
<path d="M3425 2033 c30 -8 35 -21 35 -95 0 -39 4 -68 10 -68 6 0 10 30 10 69
0 76 -14 102 -53 100 -21 -1 -21 -2 -2 -6z"/>
<path d="M3508 2034 c-12 -11 -10 -234 2 -234 6 0 10 20 10 45 0 38 3 44 18
39 14 -5 14 -4 3 4 -9 7 -17 37 -20 82 -3 40 -9 68 -13 64z"/>
<path d="M3587 2033 c48 -9 70 -85 37 -131 -8 -12 -10 -22 -5 -22 6 0 18 14
27 31 30 58 -5 131 -61 128 -18 -2 -18 -2 2 -6z"/>
<path d="M3709 2021 c-13 -11 -22 -22 -19 -24 3 -3 18 6 33 19 33 28 20 33
-14 5z"/>
<path d="M3790 2021 c5 -11 10 -47 10 -80 0 -33 5 -63 10 -66 18 -11 12 131
-6 149 -21 22 -27 20 -14 -3z"/>
<path d="M3850 2038 c-5 -28 -3 -168 3 -168 4 0 7 38 7 85 0 47 -2 85 -5 85
-3 0 -5 -1 -5 -2z"/>
<path d="M3944 2024 c12 -11 16 -35 16 -85 0 -39 4 -69 10 -69 6 0 10 30 10
69 0 68 -14 101 -41 101 -6 0 -3 -7 5 -16z"/>
<path d="M4000 1971 c0 -61 3 -72 22 -85 12 -9 27 -16 32 -16 6 0 0 7 -12 16
-19 13 -22 24 -22 85 0 39 -4 69 -10 69 -6 0 -10 -30 -10 -69z"/>
<path d="M4111 1945 c1 -101 -7 -124 -45 -126 -17 -1 -18 -2 -3 -6 10 -3 29 3
42 11 24 16 25 21 25 116 0 62 -4 100 -10 100 -7 0 -10 -36 -9 -95z"/>
<path d="M2218 1958 c5 -94 22 -114 22 -26 0 37 -3 73 -6 82 -13 35 -19 12
-16 -56z"/>
<path d="M2655 2010 c-25 -28 -25 -85 1 -110 10 -11 35 -22 54 -25 l35 -5 -32
10 c-58 19 -79 76 -47 125 20 30 14 32 -11 5z"/>
<path d="M2759 2013 c5 -10 13 -27 17 -38 6 -17 8 -18 11 -3 5 20 -13 58 -27
58 -7 0 -7 -6 -1 -17z"/>
<path d="M2106 1954 c-35 -34 -1 -86 54 -83 l25 2 -25 4 c-14 3 -31 10 -37 15
-19 15 -16 55 5 67 9 6 12 11 5 11 -6 0 -19 -7 -27 -16z"/>
<path d="M3686 1954 c-35 -34 -1 -86 54 -83 l25 2 -25 4 c-14 3 -31 10 -37 15
-16 13 -17 50 -1 66 7 7 9 12 6 12 -4 0 -14 -7 -22 -16z"/>
<path d="M2042 1895 c-7 -8 -9 -15 -4 -15 5 0 15 7 22 15 16 19 -1 19 -18 0z"/>
<path d="M3042 1895 c-7 -8 -9 -15 -4 -15 5 0 15 7 22 15 16 19 -1 19 -18 0z"/>
<path d="M1973 1873 c9 -2 25 -2 35 0 9 3 1 5 -18 5 -19 0 -27 -2 -17 -5z"/>
<path d="M2973 1873 c9 -2 25 -2 35 0 9 3 1 5 -18 5 -19 0 -27 -2 -17 -5z"/>
<path d="M3568 1873 c6 -2 18 -2 25 0 6 3 1 5 -13 5 -14 0 -19 -2 -12 -5z"/>
</g>
</svg>
